<?xml version="1.0" encoding="utf-8"?>
<!-- Generator: Adobe Illustrator 22.1.0, SVG Export Plug-In . SVG Version: 6.00 Build 0)  -->
<svg version="1.1" id="Capa_1" xmlns="http://www.w3.org/2000/svg" xmlns:xlink="http://www.w3.org/1999/xlink" x="0px" y="0px"
	 viewBox="0 0 480 480" style="enable-background:new 0 0 480 480;" xml:space="preserve">
<style type="text/css">
	.st0{fill:#19B0B8;}
</style>
<g>
	<g>
		<path class="st0" d="M475.6,72.8c-2.7-1.4-6-1.1-8.4,0.8l-13.5,10.1c-9,6.8-16.8,14.7-23.6,23.6C386.7,44.9,316.5,8,240,8
			C180.2,8,123,31.3,80,72.3V72H64v20.1V144H48V72H32v72H16V72H0v80v16c0,10.2,6.5,18.9,15.5,22.4L2.7,367.5c-1,12.5,4.2,27,13.3,37
			c6.4,7,14.3,11.1,22.4,11.5c0.5,0.1,1.1,0.2,1.6,0.2c8.6,0,17.1-4.1,23.9-11.6c2-2.2,3.9-4.7,5.5-7.3
			C113.3,444.9,174.8,472,240,472c66.4,0,129.9-29.1,173.7-78.5c1.4,4,3.5,7.7,6.4,10.9c6.5,7.4,15.8,11.6,25.7,11.6h0
			c18.9,0,34.2-15.4,34.2-34.2V248V80C480,77,478.3,74.2,475.6,72.8z M61.1,374.7c-0.2,1-0.5,2.1-0.7,3.2
			c-1.4,5.8-4.2,11.6-8.2,15.9c-2.5,2.7-6.4,5.9-11.1,6.4c-0.4,0-0.7-0.1-1.1-0.1c-5.2,0-9.5-3.5-12.2-6.4
			c-6.1-6.6-9.8-16.8-9.2-24.9L31.4,192h17.1l12.8,176.8C61.5,370.6,61.4,372.6,61.1,374.7z M64,168c0,4.4-3.6,8-8,8H24
			c-4.4,0-8-3.6-8-8v-8h48V168z M418.9,302l-6.4,67.9C371.8,423.9,307.5,456,240,456c-63.2,0-122.6-27.3-163.8-75.2c0,0,0,0,0,0
			c0.5-2.1,0.8-4.1,1-6.2c0-0.4,0.1-0.7,0.1-1.1c0.1-2,0.2-4.1,0-6L64.5,190.4c0.2-0.1,0.3-0.2,0.5-0.2c0.4-0.2,0.7-0.3,1.1-0.5
			c0.9-0.4,1.9-0.9,2.7-1.5c0.4-0.2,0.8-0.5,1.1-0.7c0.9-0.6,1.7-1.3,2.5-2c0.2-0.2,0.5-0.4,0.7-0.7c1-1,1.9-2.1,2.7-3.2
			c0.2-0.2,0.3-0.5,0.4-0.8c0.6-0.9,1.1-1.9,1.6-2.9c0.2-0.4,0.4-0.8,0.5-1.3c0.4-1,0.7-1.9,0.9-2.9c0.1-0.4,0.2-0.8,0.3-1.3
			c0.3-1.4,0.4-2.9,0.4-4.4v-16V95.1C121,49.9,179.1,24,240,24c73.4,0,140.5,36.4,180.7,97.7l-4.9,8.5
			c-10.3,18.1-15.8,38.7-15.8,59.5v21c0,10.7,4.2,20.7,11.7,28.3l12,12L418.9,302z M464,381.8c0,10.1-8.2,18.2-18.2,18.2h0
			c-5.2,0-10.2-2.2-13.7-6.2c-3.5-3.9-5.1-9.1-4.4-14.6l0.5-5.6v0l8.9-94.4l2.2-23.2H464V381.8z M464,240h-28.7L423,227.7
			c-4.5-4.5-7-10.6-7-17v-21c0-18.1,4.7-35.9,13.7-51.6l5.7-10l1.5-2.3c0,0,0,0,0-0.1c6.9-11.3,15.7-21.2,26.4-29.2L464,96V240z"/>
	</g>
</g>
<g>
	<g>
		<path class="st0" d="M293.6,117.1c-4.1-4.6-8-8.9-10.4-13.1c-2.6-4.5-4.5-10.2-6.5-16.2C272.6,75.7,268,62,256,55
			c-11.6-6.7-25-4.1-38-1.5c-6.4,1.3-12.5,2.5-18,2.5s-11.6-1.2-18-2.5c-13-2.6-26.3-5.2-38,1.5c-12,7-16.6,20.7-20.6,32.8
			c-2,6-3.9,11.8-6.5,16.2c-2.4,4.2-6.3,8.5-10.4,13.1C97.8,126.7,88,137.5,88,152s9.8,25.3,18.4,34.9c4.1,4.6,8,8.9,10.4,13.1
			c2.6,4.5,4.5,10.2,6.5,16.2c4,12.1,8.6,25.8,20.6,32.8c11.6,6.7,25,4.1,38,1.5c6.4-1.3,12.5-2.5,18-2.5s11.6,1.2,18,2.5
			c6.9,1.4,13.9,2.8,20.6,2.8c6,0,11.9-1.1,17.3-4.3c12-7,16.6-20.7,20.6-32.8c2-6,3.9-11.8,6.5-16.2c2.4-4.2,6.3-8.5,10.4-13.1
			c8.6-9.6,18.4-20.4,18.4-34.9S302.2,126.7,293.6,117.1z M281.7,176.2c-4.5,5-9.1,10.1-12.4,15.8c-3.4,5.9-5.7,12.6-7.8,19.2
			c-3.4,10.3-6.7,20.1-13.5,24c-6.4,3.7-16.3,1.7-26.8-0.4c-6.9-1.4-14.1-2.8-21.2-2.8s-14.2,1.4-21.2,2.8
			c-10.5,2.1-20.4,4.1-26.8,0.4c-6.8-3.9-10-13.7-13.5-24c-2.2-6.5-4.4-13.3-7.8-19.2c-3.3-5.7-7.9-10.8-12.4-15.8
			C110.9,168,104,160.3,104,152s6.9-16,14.3-24.2c4.5-5,9.1-10.1,12.4-15.8c3.4-5.9,5.7-12.6,7.8-19.2c3.4-10.3,6.7-20.1,13.5-24
			c2.6-1.5,5.8-2.1,9.4-2.1c5.2,0,11.2,1.2,17.4,2.4c6.9,1.4,14.1,2.8,21.2,2.8s14.2-1.4,21.2-2.8c10.5-2.1,20.4-4.1,26.8-0.4
			c6.8,3.9,10,13.7,13.5,24c2.2,6.5,4.4,13.3,7.8,19.2c3.3,5.7,7.9,10.8,12.4,15.8c7.4,8.2,14.3,15.9,14.3,24.2
			S289.1,168,281.7,176.2z"/>
	</g>
</g>
<g>
	<g>
		<path class="st0" d="M200,104c-26.5,0-48,21.5-48,48s21.5,48,48,48s48-21.5,48-48S226.5,104,200,104z M200,184
			c-17.6,0-32-14.4-32-32s14.4-32,32-32s32,14.4,32,32S217.6,184,200,184z"/>
	</g>
</g>
<g>
	<g>
		<path class="st0" d="M312,272H168c-3.3,0-6.2,2-7.4,5c-1.2,3-0.4,6.5,1.9,8.8l2.3,2.2H96c-3.3,0-6.2,2-7.4,5
			c-1.2,3-0.4,6.5,1.9,8.8l144,136c1.5,1.4,3.5,2.2,5.5,2.2c1.1,0,2.2-0.2,3.2-0.7c2.9-1.3,4.8-4.2,4.8-7.3v-65.4l58.5,55.3
			c1.5,1.4,3.5,2.2,5.5,2.2c1.1,0,2.2-0.2,3.2-0.7c2.9-1.3,4.8-4.2,4.8-7.3V280C320,275.6,316.4,272,312,272z M232,413.4L116.1,304
			h65.6l50.2,47.4V413.4z M304,397.4L188.1,288H304V397.4z"/>
	</g>
</g>
<g>
	<g>
		<path class="st0" d="M360,88c-13.2,0-24,10.8-24,24v144c0,13.2,10.8,24,24,24s24-10.8,24-24V112C384,98.8,373.2,88,360,88z
			 M368,256c0,4.4-3.6,8-8,8s-8-3.6-8-8v-36.7l16,16V256z M368,212.7l-16-16v-41.4l16,16V212.7z M368,148.7l-16-16V112
			c0-4.4,3.6-8,8-8s8,3.6,8,8V148.7z"/>
	</g>
</g>
</svg>
