<?xml version="1.0" encoding="utf-8"?>
<!-- Generator: Adobe Illustrator 22.1.0, SVG Export Plug-In . SVG Version: 6.00 Build 0)  -->
<svg version="1.1" id="Capa_1" xmlns="http://www.w3.org/2000/svg" xmlns:xlink="http://www.w3.org/1999/xlink" x="0px" y="0px"
	 viewBox="0 0 480 480" style="enable-background:new 0 0 480 480;" xml:space="preserve">
<style type="text/css">
	.st0{fill:#19B0B8;}
</style>
<g>
	<g>
		<path class="st0" d="M480,230.8V128c0-22.1-17.9-40-40-40h-32.4l4.7-22.9l11.5-55.5c0.9-4.3-1.9-8.6-6.2-9.4
			C417.1,0.1,416.5,0,416,0H64c-4.4,0-8,3.6-8,8c0,0.5,0.1,1.1,0.2,1.6l11.5,55.5L72.4,88H40c-22.1,0-40,17.9-40,40v102.8
			c0,18.5,12.6,34.6,30.6,38.9L73.3,280L6.1,296.2C2.5,297.1,0,300.3,0,304v64c0,4.4,3.6,8,8,8c0.6,0,1.3-0.1,1.9-0.2L56,364.7
			l-9.1,24c-4.5,11.8-6.8,24.4-6.8,37V472c0,4.4,3.6,8,8,8h384c4.4,0,8-3.6,8-8v-46.3c0-12.7-2.3-25.2-6.8-37l-9.1-24l46.1,11.1
			c0.6,0.2,1.2,0.2,1.9,0.2c4.4,0,8-3.6,8-8v-64c0-3.7-2.5-6.9-6.1-7.8L406.7,280l42.7-10.3C467.4,265.4,480,249.3,480,230.8z
			 M440,104c13.3,0,24,10.7,24,24v24h-69.6l9.9-48H440z M90,94.4L86,74.7l10.5,2.8c2.9,0.8,5.9,1.4,8.8,2c0.9,0.2,1.7,0.3,2.6,0.4
			c2.3,0.4,4.5,0.7,6.8,0.9c0.8,0.1,1.6,0.2,2.3,0.2c2.8,0.2,5.6,0.3,8.4,0.3h0.4c3.8,0,7.7-0.2,11.5-0.7c1-0.1,2-0.3,3-0.4
			c2.8-0.4,5.6-0.9,8.4-1.5c1.3-0.3,2.5-0.6,3.8-0.9c2.6-0.7,5.3-1.5,7.9-2.3c1.1-0.4,2.3-0.7,3.4-1.1c3.7-1.3,7.2-2.9,10.7-4.6
			l23.8-11.9c26.4-12.9,57.4-12.9,83.8,0l23.8,11.9c24.1,12.1,51.9,14.8,77.9,7.7l10.5-2.9L390,94.4l-13.2,64l-10.5,50.9L240,239.8
			l-126.2-30.5l-10.5-50.9L90,94.4z M96.6,205.2L41,191.7c-11.8-2.8-21-12-23.9-23.7h71.8L96.6,205.2z M391.1,168h71.8
			c-2.9,11.7-12.1,20.9-23.9,23.7l-55.6,13.4L391.1,168z M406.2,16l-8.5,41.1l-18.3,5c-22.2,6.1-46,3.7-66.6-6.6L289,43.6
			c-30.9-15.1-67.1-15.1-98.1,0l-23.8,11.9c-20.6,10.3-44.3,12.7-66.5,6.6l-18.3-5L73.8,16H406.2z M16,128c0-13.3,10.7-24,24-24
			h35.7l9.9,48H16V128z M32,353.9l-16,3.9v-47.5l16-3.9V353.9z M48,350.1v-47.5l24-5.8V312h16v-19.1l19.4-4.7l4.6,1.1V304h16v-10.8
			l50.7,12.2l27.2,6.6L67,345.5L48,350.1z M240,320.2l165.2,39.9l13,34.1L240,423.9L61.8,394.2l13-34.1l110.1-26.6L240,320.2z
			 M424,464H56v-38.3c0-5.4,0.5-10.7,1.5-16l181.2,30.2c0.9,0.1,1.8,0.1,2.6,0l181.2-30.2c1,5.3,1.5,10.6,1.5,16V464z M448,306.4
			l16,3.9v47.6l-16-3.9V306.4z M408,312v-15.2l24,5.8v47.5l-18.9-4.6l-171.2-41.3l-109-26.3l-24.3-5.9l-9-2.2l-65.1-15.7
			C23.6,251.6,16,241.9,16,230.8v-34.7c4.7,4.2,10.1,7.5,16,9.6V224h16v-14.1l24,5.8V232h16v-12.5l24,5.8V240h16v-10.8l24,5.8v21h16
			v-17.2l24,5.8V264h16v-15.5l24,5.8V272h16v-13.8l24,5.8v16h16v-12.2l24,5.8V288h16v-10.5l24,5.8V304h16v-16.9l2.7,0.6l11.8,2.8
			l9.6,2.3V312H408z M380.4,269.9l-7.9,1.9L274.1,248l37.9-9.2v9.2h16v-13l24-5.8V240h16v-14.7l24-5.8V232h16v-16.3l24-5.8V224h16
			v-18.3c5.9-2.1,11.3-5.4,16-9.6v34.7c0,11.1-7.6,20.8-18.4,23.3L380.4,269.9z"/>
	</g>
</g>
</svg>
