<?xml version="1.0" encoding="utf-8"?>
<!-- Generator: Adobe Illustrator 22.1.0, SVG Export Plug-In . SVG Version: 6.00 Build 0)  -->
<svg version="1.1" id="Capa_1" xmlns="http://www.w3.org/2000/svg" xmlns:xlink="http://www.w3.org/1999/xlink" x="0px" y="0px"
	 viewBox="0 0 480 480" style="enable-background:new 0 0 480 480;" xml:space="preserve">
<style type="text/css">
	.st0{fill:#19B0B8;}
</style>
<g>
	<g>
		<path class="st0" d="M456,112h-16V72c0-13.2-10.8-24-24-24h-32c-13.2,0-24,10.8-24,24v64h-18.8l-1.8-4.5
			c-8.5-21.6-28.9-35.5-52.1-35.5h-0.8c-3.3-9.3-12.1-16-22.5-16c-6.2,0-11.7,2.4-16,6.2c-4.3-3.8-9.8-6.2-16-6.2s-11.7,2.4-16,6.2
			c-4.3-3.8-9.8-6.2-16-6.2s-11.7,2.4-16,6.2c-4.3-3.8-9.8-6.2-16-6.2c-13.2,0-24,10.8-24,24v32h-24V72c0-13.2-10.8-24-24-24H64
			c-13.2,0-24,10.8-24,24v40H24c-13.2,0-24,10.8-24,24v80c0,13.2,10.8,24,24,24h16v40c0,13.2,10.8,24,24,24h32c13.2,0,24-10.8,24-24
			v-64h18.1l6.2,19.7c0.3,0.9,0.7,1.7,1.3,2.5l21.4,27.6l-13.7,143.7c-0.6,5.7,1.4,11.5,5.2,15.7c3.9,4.3,9.4,6.7,15.2,6.7h108.4
			c5.8,0,11.3-2.5,15.2-6.7c3.9-4.3,5.8-10,5.2-15.8l-14-139.8c-0.2-1.5,0.4-2.9,1.5-3.9l43.9-37.6c3.8-3.3,6.5-7.6,8.2-12.2H360v64
			c0,13.2,10.8,24,24,24h32c13.2,0,24-10.8,24-24v-40h16c13.2,0,24-10.8,24-24v-80C480,122.8,469.2,112,456,112z M40,224H24
			c-4.4,0-8-3.6-8-8v-80c0-4.4,3.6-8,8-8h16V224z M104,144v64v72c0,4.4-3.6,8-8,8H64c-4.4,0-8-3.6-8-8v-48V120V72c0-4.4,3.6-8,8-8
			h32c4.4,0,8,3.6,8,8V144z M256,104c0-4.4,3.6-8,8-8s8,3.6,8,8v40v7.1c0,3-1.5,5.8-3.6,7.4c-0.2,0.2-0.4,0.3-0.7,0.5
			c-0.4,0.2-0.9,0.4-1.4,0.5c-0.5,0.2-1,0.3-1.6,0.3c-0.6,0-1.3,0-1.9-0.1c-0.5-0.1-0.9-0.1-1.4-0.3c-0.6-0.2-1.2-0.6-1.8-1
			c-0.3-0.2-0.7-0.4-1-0.7c-0.6-0.5-1-1.2-1.4-1.8c-0.2-0.3-0.4-0.5-0.5-0.8c-0.4-1-0.7-2.1-0.7-3.2L256,104L256,104z M224,104
			c0-4.4,3.6-8,8-8s8,3.6,8,8v48c0,4.4-3.6,8-8,8s-8-3.6-8-8V104z M192,104c0-4.4,3.6-8,8-8s8,3.6,8,8v48c0,4.4-3.6,8-8,8
			s-8-3.6-8-8V104z M160,144v-40c0-4.4,3.6-8,8-8s8,3.6,8,8v48c0,1.1-0.3,2.2-0.7,3.2c-0.1,0.3-0.4,0.5-0.5,0.8
			c-0.4,0.6-0.8,1.3-1.4,1.8c-0.3,0.3-0.7,0.5-1,0.7c-0.6,0.4-1.2,0.7-1.8,1c-0.4,0.1-0.9,0.2-1.3,0.3c-0.6,0.1-1.3,0.2-1.9,0.1
			c-0.5,0-1.1-0.2-1.6-0.3c-0.5-0.2-0.9-0.3-1.4-0.5c-0.2-0.1-0.5-0.3-0.7-0.5c-2.2-1.6-3.7-4.4-3.7-7.4V144z M120,200v-48h24
			c0,8.8,4.8,16.4,11.8,20.6c0.4,0.3,0.9,0.5,1.3,0.7c0.7,0.4,1.4,0.7,2.2,1c0.8,0.3,1.7,0.6,2.6,0.8c0.5,0.1,1,0.3,1.6,0.4
			c0.2,0,0.3,0.1,0.5,0.1c0.6,0.1,1.1,0,1.7,0.1c0.8,0.1,1.5,0.2,2.3,0.2c0.2,0,0.4-0.1,0.7-0.1c0.7,0,1.4-0.1,2.2-0.2
			c1-0.1,1.9-0.2,2.8-0.5c0.7-0.2,1.3-0.4,2-0.6c0.9-0.3,1.8-0.6,2.6-1c0.6-0.3,1.3-0.7,1.9-1c0.8-0.5,1.6-1,2.3-1.6
			c0.3-0.3,0.7-0.4,1-0.7c0.2-0.1,0.3-0.3,0.5-0.4c0.5,0.4,1,0.7,1.5,1.1c0.5,0.4,1,0.8,1.5,1.1c0.8,0.5,1.6,0.9,2.4,1.3
			c0.5,0.3,1,0.6,1.6,0.8c0.9,0.4,1.9,0.6,2.9,0.9c0.5,0.1,1,0.3,1.5,0.4c1.5,0.3,3.1,0.5,4.7,0.5s3.2-0.2,4.7-0.5
			c0.5-0.1,1-0.3,1.5-0.4c1-0.3,1.9-0.5,2.9-0.9c0.6-0.2,1.1-0.5,1.6-0.8c0.8-0.4,1.6-0.8,2.3-1.3c0.5-0.3,1-0.7,1.5-1.1
			c0.5-0.4,1-0.7,1.5-1.1c0.5,0.4,1,0.7,1.5,1.1c0.5,0.4,1,0.8,1.5,1.1c0.7,0.5,1.5,0.9,2.3,1.3c0.5,0.3,1.1,0.6,1.6,0.8
			c0.9,0.4,1.9,0.6,2.9,0.9c0.5,0.1,1,0.3,1.5,0.4c1.5,0.3,3.1,0.5,4.7,0.5s3.2-0.2,4.7-0.5c0.5-0.1,1-0.3,1.5-0.4
			c1-0.3,2-0.5,2.9-0.9c0.6-0.2,1.1-0.5,1.6-0.8c0.8-0.4,1.6-0.8,2.4-1.3c0.5-0.3,1-0.7,1.5-1.1c0.5-0.4,1-0.7,1.5-1.1
			c0.2,0.1,0.3,0.3,0.5,0.4c0.3,0.3,0.7,0.4,1,0.7c0.7,0.6,1.5,1.1,2.3,1.6c0.6,0.4,1.2,0.7,1.9,1c0.9,0.4,1.8,0.8,2.7,1.1
			c0.6,0.2,1.3,0.4,1.9,0.6c1,0.2,2,0.4,3,0.5c0.7,0.1,1.3,0.2,2,0.2c0.2,0,0.5,0.1,0.7,0.1c0.8,0,1.6-0.2,2.3-0.2
			c0.5,0,1.1,0,1.6-0.1c0.2,0,0.4-0.1,0.5-0.1c0.4-0.1,0.7-0.2,1.1-0.3c1-0.2,2-0.5,3-0.9c0.5-0.2,1-0.4,1.5-0.7
			c0.6-0.3,1.1-0.6,1.6-0.9c5.8-3.3,10.2-8.9,11.7-15.7c0.4,0.9,0.6,1.8,0.6,2.9v28.7L276.7,200H120z M328,206.6
			c0,3.7-1.6,7.1-4.4,9.5l-43.9,37.6c-5.1,4.4-7.7,10.9-7.1,17.6l14,139.8c0.2,1.7-0.6,2.9-1.1,3.5c-0.5,0.5-1.6,1.5-3.3,1.5H173.7
			c-1.7,0-2.8-0.9-3.3-1.5c-0.5-0.6-1.3-1.7-1.2-3.5l14-146.9c0.2-2-0.4-4-1.6-5.7l-22.4-29l-4.3-13.5h121.8c4.2,0,8.3-1.7,11.3-4.7
			l11.3-11.3c3-3,4.7-7,4.7-11.3V160c0-10.4-6.7-19.2-16-22.5V112c16.3,0.3,30.5,10.2,36.5,25.4l3,7.6c0.3,0.6,0.5,1.3,0.5,2V206.6z
			 M360,200h-16v-48h16V200z M424,120v112v48c0,4.4-3.6,8-8,8h-32c-4.4,0-8-3.6-8-8v-72v-64V72c0-4.4,3.6-8,8-8h32c4.4,0,8,3.6,8,8
			V120z M464,216c0,4.4-3.6,8-8,8h-16v-96h16c4.4,0,8,3.6,8,8V216z"/>
	</g>
</g>
</svg>
